<svg xmlns="http://www.w3.org/2000/svg" xmlns:xlink="http://www.w3.org/1999/xlink" id="Layer_2" width="150" height="150" x="0" y="0" version="1.1" viewBox="0 0 150 150" style="enable-background:new 0 0 150 150" xml:space="preserve"><style type="text/css">.st0{fill:#365551}.st1{fill:#348a28}.st1,.st2,.st3,.st4{clip-path:url(#SVGID_2_)}.st2{fill:#365551}.st3{fill:#d5efea}.st4{fill:#afebd2}.st5{fill:#223834}.st5,.st6,.st7,.st8,.st9{clip-path:url(#SVGID_2_)}.st6{fill:#3ea730}.st7{fill:#2d7c21}.st8{fill:#1f6821}.st9{fill:#165418}</style><path d="M126,29H24.1V4.7c0-2.7,2.2-4.8,4.8-4.8h92.2c2.7,0,4.8,2.2,4.8,4.8V29z" class="st0"/><g><defs><ellipse id="SVGID_1_" cx="75" cy="75" rx="75" ry="74.9"/></defs><clipPath id="SVGID_2_"><use xlink:href="#SVGID_1_" style="overflow:visible"/></clipPath><rect width="150" height="129.9" x="0" y="17.5" class="st1"/><rect width="101.9" height="141.6" x="24.1" y="-3.8" class="st2"/><rect width="83.7" height="123.3" x="33.3" y="27.8" class="st3"/><path d="M117,27.8H33.3v-8.2c0-1.3,1.1-2.4,2.4-2.4h78.9c1.3,0,2.4,1.1,2.4,2.4V27.8z" class="st4"/><ellipse cx="93.8" cy="7.8" class="st5" rx="3.3" ry="3.2"/><ellipse cx="55.7" cy="7.8" class="st5" rx="3.3" ry="3.2"/><path d="M27.3,119.9h41.6c3.5,8.1,5.1,11.9,10.1,11.9c0,0,4.6-0.1,5.3-3.7c0.7-3.6,0.5-28.4,0.5-38.4 s-14.4-22.7-22-22.7c0,0-26.4,0-35.5,0S9.6,78.4,9.6,93.4S18.6,119.9,27.3,119.9z" class="st6"/><path d="M51.7,89.6H27c-0.6,0-1-0.4-1-1v-7c0-0.6,0.4-1,1-1h24.7c0.6,0,1,0.4,1,1v7C52.7,89.2,52.2,89.6,51.7,89.6z" class="st7"/><path d="M121.1,89.2H79.5c-3.5,8.1-5.1,11.9-10.1,11.9c0,0-4.6-0.1-5.3-3.7c-0.7-3.6-0.5-28.4-0.5-38.4 s14.4-22.7,22-22.7c0,0,26.4,0,35.5,0s17.7,11.5,17.7,26.5S129.8,89.2,121.1,89.2z" class="st8"/><path d="M124.5,57.4H90.8c-0.6,0-1-0.5-1-1v-5.7c0-0.5,0.4-1,1-1h33.7c0.6,0,1,0.5,1,1v5.7 C125.5,56.9,125.1,57.4,124.5,57.4z" class="st9"/><path d="M83.8,11.1H66.3c-1.7,0-3-1.3-3-3V8c0-1.6,1.3-3,3-3h17.5c1.7,0,3,1.3,3,3v0.1C86.8,9.8,85.4,11.1,83.8,11.1z" class="st5"/><path d="M124.3,71.8H99.2c-0.5,0-1-0.4-1-1v-6.2c0-0.6,0.5-1,1-1h25.2c0.5,0,1,0.4,1,1v6.2 C125.3,71.4,124.9,71.8,124.3,71.8z" class="st9"/><path d="M43.2,103.3H26.8c-0.5,0-1-0.4-1-1v-5.8c0-0.6,0.5-1,1-1h16.3c0.6,0,1,0.4,1,1v5.8 C44.2,102.8,43.7,103.3,43.2,103.3z" class="st7"/></g></svg>